0
SECTION
2
HEADER
9
$INSUNITS
70
4
9
$ACADVER
1
AC1014
9
$HANDSEED
5
FFFF
0
ENDSEC
0
SECTION
2
TABLES
0
TABLE
2
VPORT
5
8
100
AcDbSymbolTable
0
ENDTAB
0
TABLE
2
LTYPE
5
5
100
AcDbSymbolTable
0
LTYPE
5
14
100
AcDbSymbolTableRecord
100
AcDbLinetypeTableRecord
2
BYBLOCK
70
0
0
LTYPE
5
15
100
AcDbSymbolTableRecord
100
AcDbLinetypeTableRecord
2
BYLAYER
70
0
0
LTYPE
5
16
100
AcDbSymbolTableRecord
100
AcDbLinetypeTableRecord
2
DASHED
70
0
3
Dashed __ __ __ __ __ __ __ __ __ __ __ __ __ _
72
65
73
2
40
0.75
49
0.5
74
0
49
-0.25
74
0
0
ENDTAB
0
TABLE
2
LAYER
5
2
100
AcDbSymbolTable
70
2
0
LAYER
5
50
100
AcDbSymbolTableRecord
100
AcDbLayerTableRecord
2
0
70
0
62
7
6
CONTINUOUS
0
ENDTAB
0
TABLE
2
STYLE
5
3
100
AcDbSymbolTable
70
1
0
STYLE
5
11
100
AcDbSymbolTableRecord
100
AcDbTextStyleTableRecord
2
STANDARD
70
0
0
ENDTAB
0
TABLE
2
VIEW
5
6
100
AcDbSymbolTable
70
0
0
ENDTAB
0
TABLE
2
UCS
5
7
100
AcDbSymbolTable
70
0
0
ENDTAB
0
TABLE
2
APPID
5
9
100
AcDbSymbolTable
70
2
0
APPID
5
12
100
AcDbSymbolTableRecord
100
AcDbRegAppTableRecord
2
ACAD
70
0
0
ENDTAB
0
TABLE
2
DIMSTYLE
5
A
100
AcDbSymbolTable
70
1
0
ENDTAB
0
TABLE
2
BLOCK_RECORD
5
1
100
AcDbSymbolTable
70
1
0
BLOCK_RECORD
5
1F
100
AcDbSymbolTableRecord
100
AcDbBlockTableRecord
2
*MODEL_SPACE
0
BLOCK_RECORD
5
1B
100
AcDbSymbolTableRecord
100
AcDbBlockTableRecord
2
*PAPER_SPACE
0
ENDTAB
0
ENDSEC
0
SECTION
2
BLOCKS
0
BLOCK
5
20
100
AcDbEntity
100
AcDbBlockBegin
2
*MODEL_SPACE
0
ENDBLK
5
21
100
AcDbEntity
100
AcDbBlockEnd
0
BLOCK
5
1C
100
AcDbEntity
100
AcDbBlockBegin
2
*PAPER_SPACE
0
ENDBLK
5
1D
100
AcDbEntity
100
AcDbBlockEnd
0
ENDSEC
0
SECTION
2
ENTITIES
0
CIRCLE
5
100
100
AcDbEntity
8
0
100
AcDbCircle
10
131.51678251617247
20
71.230533903835479
30
0
40
0.99999999999999645
210
0
220
-0
230
1
0
LWPOLYLINE
5
101
100
AcDbEntity
8
0
100
AcDbPolyline
90
4
70
1
43
0.0
10
37.047082000000003
20
77.56849200000002
10
50.834390999999997
20
75.137416999999999
10
48.40331599999999
20
61.350107999999999
10
34.616006999999996
20
63.781183000000006
0
LWPOLYLINE
5
102
100
AcDbEntity
8
0
100
AcDbPolyline
90
4
70
1
43
0.0
10
18.286481999999999
20
80.876491999999999
10
32.073791000000007
20
78.445416999999992
10
29.642716
20
64.658107999999999
10
15.855406999999992
20
67.089182999999991
0
LWPOLYLINE
5
103
100
AcDbEntity
8
0
100
AcDbPolyline
90
4
70
1
43
0.0
10
55.874683000000005
20
74.222092000000004
10
69.661991999999998
20
71.791017000000025
10
67.230916999999991
20
58.003708000000003
10
53.443608000000005
20
60.434782999999996
0
LWPOLYLINE
5
104
100
AcDbEntity
8
0
100
AcDbPolyline
90
4
70
1
43
0.0
10
15.325000000000006
20
19.351199999999995
10
29.32500000000001
20
19.351199999999995
10
29.32500000000001
20
5.3512000000000004
10
15.325000000000006
20
5.3512000000000004
0
LWPOLYLINE
5
105
100
AcDbEntity
8
0
100
AcDbPolyline
90
4
70
1
43
0.0
10
67.424999999999997
20
-4.1738009999999992
10
53.425000000000004
20
-4.1738009999999992
10
53.425000000000004
20
9.8261990000000043
10
67.424999999999997
20
9.8261990000000043
0
LWPOLYLINE
5
106
100
AcDbEntity
8
0
100
AcDbPolyline
90
4
70
1
43
0.0
10
110.57499900000002
20
45.545000000000002
10
124.57499900000002
20
45.545000000000002
10
124.57499900000002
20
31.545000000000005
10
110.57499900000002
20
31.545000000000005
0
LWPOLYLINE
5
107
100
AcDbEntity
8
0
100
AcDbPolyline
90
4
70
1
43
0.0
10
34.375
20
16.969998999999998
10
48.375
20
16.969998999999998
10
48.375
20
2.9699990000000032
10
34.375
20
2.9699990000000032
0
LWPOLYLINE
5
108
100
AcDbEntity
8
0
100
AcDbPolyline
90
4
70
1
43
0.0
10
72.474999999999994
20
16.969999999999999
10
86.474999999999994
20
16.969999999999999
10
86.474999999999994
20
2.970000000000006
10
72.474999999999994
20
2.9699999999999971
0
LWPOLYLINE
5
109
100
AcDbEntity
8
0
100
AcDbPolyline
90
4
70
1
43
0.0
10
72.474999999999994
20
36.019999999999989
10
86.474999999999994
20
36.019999999999989
10
86.474999999999994
20
22.02
10
72.474999999999994
20
22.02
0
LWPOLYLINE
5
110
100
AcDbEntity
8
0
100
AcDbPolyline
90
4
70
1
43
0.0
10
34.375
20
-2.0800000000000018
10
48.375
20
-2.0800000000000018
10
48.375
20
-16.080000000000005
10
34.375
20
-16.080000000000005
0
LWPOLYLINE
5
111
100
AcDbEntity
8
0
100
AcDbPolyline
90
4
70
1
43
0.0
10
91.524999000000008
20
45.545000000000002
10
105.52499900000001
20
45.545000000000002
10
105.52499900000001
20
31.545000000000005
10
91.524999000000008
20
31.545000000000005
0
LWPOLYLINE
5
112
100
AcDbEntity
8
0
100
AcDbPolyline
90
4
70
1
43
0.0
10
91.52500000000002
20
7.4450000000000038
10
105.52500000000002
20
7.4450000000000038
10
105.52500000000002
20
-6.5549999999999997
10
91.52500000000002
20
-6.5549999999999997
0
LWPOLYLINE
5
113
100
AcDbEntity
8
0
100
AcDbPolyline
90
4
70
1
43
0.0
10
15.324998999999995
20
0.30119899999999866
10
29.324998999999998
20
0.30119899999999866
10
29.324998999999998
20
-13.698800999999996
10
15.324998999999995
20
-13.698800999999996
0
LWPOLYLINE
5
114
100
AcDbEntity
8
0
100
AcDbPolyline
90
4
70
1
43
0.0
10
110.57499999999999
20
26.494999000000004
10
124.57499999999997
20
26.494999000000004
10
124.57499999999997
20
12.494999
10
110.57499999999999
20
12.494999
0
LWPOLYLINE
5
115
100
AcDbEntity
8
0
100
AcDbPolyline
90
4
70
1
43
0.0
10
15.325000000000006
20
38.301299999999998
10
29.32500000000001
20
38.301299999999998
10
29.32500000000001
20
24.301300000000001
10
15.325000000000006
20
24.301300000000001
0
LWPOLYLINE
5
116
100
AcDbEntity
8
0
100
AcDbPolyline
90
4
70
1
43
0.0
10
72.474999999999994
20
55.070000000000007
10
86.474999999999994
20
55.070000000000007
10
86.474999999999994
20
41.07
10
72.474999999999994
20
41.07
0
CIRCLE
5
117
100
AcDbEntity
8
0
100
AcDbCircle
10
-6.4621798280811138
20
92.608202182183732
30
0
40
0.99999999999999978
210
0
220
-0
230
1
0
LWPOLYLINE
5
118
100
AcDbEntity
8
0
100
AcDbPolyline
90
4
70
1
43
0.0
10
110.57499900000002
20
64.594999999999999
10
124.57499900000002
20
64.594999999999999
10
124.57499900000002
20
50.594999999999999
10
110.57499900000002
20
50.594999999999999
0
CIRCLE
5
119
100
AcDbEntity
8
0
100
AcDbCircle
10
-13.876901923571953
20
-20.330114430384135
30
0
40
0.99999999999999867
210
0
220
-0
230
1
0
LWPOLYLINE
5
120
100
AcDbEntity
8
0
100
AcDbPolyline
90
4
70
1
43
0.0
10
91.524999000000008
20
64.594999999999999
10
105.52499900000001
20
64.594999999999999
10
105.52499900000001
20
50.594999999999999
10
91.524999000000008
20
50.594999999999999
0
CIRCLE
5
121
100
AcDbEntity
8
0
100
AcDbCircle
10
60.399994777182904
20
-31.304987999114147
30
0
40
1.0000000000000053
210
0
220
-0
230
1
0
LWPOLYLINE
5
122
100
AcDbEntity
8
0
100
AcDbPolyline
90
4
70
1
43
0.0
10
-4.1909019999999941
20
63.480584999999998
10
-1.7598270000000049
20
77.267893999999998
10
12.027482000000003
20
74.836818999999991
10
9.5964069999999957
20
61.049509999999998
0
LWPOLYLINE
5
123
100
AcDbEntity
8
0
100
AcDbPolyline
90
4
70
1
43
0.0
10
110.57499999999999
20
7.4450000000000038
10
124.57499999999997
20
7.4450000000000038
10
124.57499999999997
20
-6.5549999999999997
10
110.57499999999999
20
-6.5549999999999997
0
CIRCLE
5
124
100
AcDbEntity
8
0
100
AcDbCircle
10
131.5095733493819
20
-13.497856006144076
30
0
40
0.99999999999999645
210
0
220
-0
230
1
0
CIRCLE
5
125
100
AcDbEntity
8
0
100
AcDbCircle
10
80.855048806257898
20
65.978798368645272
30
0
40
0.99999999999999645
210
0
220
-0
230
1
0
LWPOLYLINE
5
126
100
AcDbEntity
8
0
100
AcDbPolyline
90
4
70
1
43
0.0
10
72.474998999999997
20
-2.0800000000000018
10
86.474998999999997
20
-2.0800000000000018
10
86.474998999999997
20
-16.080000000000005
10
72.474998999999997
20
-16.080000000000005
0
LWPOLYLINE
5
127
100
AcDbEntity
8
0
100
AcDbPolyline
90
4
70
1
43
0.0
10
34.375
20
36.019998999999999
10
48.375
20
36.019998999999999
10
48.375
20
22.019999000000006
10
34.375
20
22.019999000000006
0
LWPOLYLINE
5
128
100
AcDbEntity
8
0
100
AcDbPolyline
90
4
70
1
43
0.0
10
34.375
20
55.070000000000007
10
48.375
20
55.070000000000007
10
48.375
20
41.07
10
34.375
20
41.07
0
LWPOLYLINE
5
129
100
AcDbEntity
8
0
100
AcDbPolyline
90
4
70
1
43
0.0
10
53.424999
20
28.876200000000001
10
67.424999
20
28.876200000000001
10
67.424999
20
14.876199999999997
10
53.424999
20
14.876199999999997
0
LWPOLYLINE
5
130
100
AcDbEntity
8
0
100
AcDbPolyline
90
4
70
1
43
0.0
10
91.524999000000008
20
26.494999999999997
10
105.52499900000001
20
26.494999999999997
10
105.52499900000001
20
12.495000000000003
10
91.524999000000008
20
12.495000000000003
0
LWPOLYLINE
5
131
100
AcDbEntity
8
0
100
AcDbPolyline
90
4
70
1
43
0.0
10
53.425000000000004
20
-9.2238000000000042
10
67.424999999999997
20
-9.2238000000000042
10
67.424999999999997
20
-23.223800000000008
10
53.425000000000004
20
-23.223800000000008
0
LWPOLYLINE
5
132
100
AcDbEntity
8
0
100
AcDbPolyline
90
4
70
1
43
0.0
10
53.424999
20
47.926199999999994
10
67.424999
20
47.926199999999994
10
67.424999
20
33.926200000000001
10
53.424999
20
33.926200000000001
0
LWPOLYLINE
5
133
100
AcDbEntity
8
0
100
AcDbPolyline
90
4
70
1
43
0.0
10
15.325000000000006
20
57.301299999999998
10
29.32500000000001
20
57.301299999999998
10
29.32500000000001
20
43.301299999999998
10
15.325000000000006
20
43.301299999999998
0
LINE
5
134
100
AcDbEntity
8
0
100
AcDbLine
10
13.019714782228018
20
53.320952810293491
30
0
11
13.019714782280047
21
-18.278648726688083
31
0
0
LINE
5
135
100
AcDbEntity
8
0
100
AcDbLine
10
13.019714782280047
20
-18.278648726688083
30
0
11
7.0938140348194878
21
-18.278648726688562
31
0
0
LINE
5
136
100
AcDbEntity
8
0
100
AcDbLine
10
7.0938140348194878
20
-18.278648726688562
30
0
11
-5.9064343694982213
21
-18.278897172147772
31
0
0
LINE
5
137
100
AcDbEntity
8
0
100
AcDbLine
10
-5.9064343694982213
20
-18.278897172147772
30
0
11
-10.331559625038
21
-18.279629985638284
31
0
0
ARC
5
138
100
AcDbEntity
8
0
100
AcDbCircle
10
-10.331817963413277
20
-16.719642780571178
30
0
40
1.5599872264579018
210
0
220
0
230
1
100
AcDbArc
50
180
51
270.00948834606226
0
LINE
5
139
100
AcDbEntity
8
0
100
AcDbLine
10
-11.891805189871178
20
-16.719642780571426
30
0
11
-11.891805189876408
21
35.816568969245012
31
0
0
ARC
5
140
100
AcDbEntity
8
0
100
AcDbCircle
10
-11.891805189875253
20
28.816568969244976
30
0
40
7.0000000000000373
210
0
220
0
230
1
100
AcDbArc
50
90.00000000000945
51
180
0
LINE
5
141
100
AcDbEntity
8
0
100
AcDbLine
10
-18.891805189875292
20
28.816568969243875
30
0
11
-18.891805189867963
21
-16.719642780572546
31
0
0
ARC
5
142
100
AcDbEntity
8
0
100
AcDbCircle
10
-10.331817963413277
20
-16.719642780571178
30
0
40
8.5599872264546857
210
0
220
0
230
1
100
AcDbArc
50
180
51
270.8675644913863
0
LINE
5
143
100
AcDbEntity
8
0
100
AcDbLine
10
-10.202208815048866
20
-25.278648726691767
30
0
11
-5.906185965180093
21
-25.278648726691078
31
0
0
LINE
5
144
100
AcDbEntity
8
0
100
AcDbLine
10
-5.906185965180093
20
-25.278648726691078
30
0
11
7.0938140348196832
21
-25.263484652736654
31
0
0
LINE
5
145
100
AcDbEntity
8
0
100
AcDbLine
10
7.0938140348196832
20
-25.263484652736654
30
0
11
19.559207359793476
21
-25.263484652736654
31
0
0
ARC
5
146
100
AcDbEntity
8
0
100
AcDbCircle
10
20.019714782280023
20
-18.27864872668696
30
0
40
6.9999999999999787
210
0
220
0
230
1
100
AcDbArc
50
266.22797129447662
51
270.00000000000915
0
LINE
5
147
100
AcDbEntity
8
0
100
AcDbLine
10
20.019714782281145
20
-25.278648726686939
30
0
11
25.874497407894967
21
-25.278648726685997
31
0
0
SPLINE
5
148
100
AcDbEntity
8
0
100
AcDbSpline
70
0
71
3
72
11
73
7
74
0
42
0.000000001
43
0.0000000001
44
0.0000000001
40
-0.17590032382162318
40
-0.17590032382162318
40
-0.17590032382162318
40
-0.17590032382162318
40
-0.10040304380820902
40
-0.10040304380820902
40
-0.10040304380820902
40
0
40
0
40
0
40
0
10
25.874497407894967
20
-25.278648726686001
30
0
10
26.604380627489356
20
-25.953657582397334
30
0
10
27.491942354940907
20
-26.476166957427747
30
0
10
28.316068730492656
20
-26.7897565673237
30
0
10
29.412065785927236
20
-27.206796112782659
30
0
10
30.373006569897537
20
-27.302198751591011
30
0
10
31.14716894177052
20
-27.304999427507774
30
0
0
LINE
5
149
100
AcDbEntity
8
0
100
AcDbLine
10
31.14716894177052
20
-27.304999427507774
30
0
11
41.708976490571331
21
-27.304999999999993
31
0
0
ARC
5
150
100
AcDbEntity
8
0
100
AcDbCircle
10
50.149947999243508
20
-26.30500000034052
30
0
40
8.5000000005608403
210
0
220
0
230
1
100
AcDbArc
50
186.75632702782849
51
270.00053255867772
0
LINE
5
151
100
AcDbEntity
8
0
100
AcDbLine
10
50.150027005913799
20
-34.805000000534179
30
0
11
70.649970744276814
21
-34.804975997980719
31
0
0
ARC
5
152
100
AcDbEntity
8
0
100
AcDbCircle
10
70.650025376893012
20
-26.305001375049262
30
0
40
8.4999746231070343
210
0
220
0
230
1
100
AcDbArc
50
269.99963173792031
51
349.83573012683848
0
LINE
5
153
100
AcDbEntity
8
0
100
AcDbLine
10
79.016600107247697
20
-27.805
30
0
11
89.650000000000006
21
-27.805
31
0
0
ARC
5
154
100
AcDbEntity
8
0
100
AcDbCircle
10
89.650000000000006
20
-19.305001000000019
30
0
40
8.4999989999999812
210
-0
220
0
230
1
100
AcDbArc
50
-90
51
0
0
LINE
5
155
100
AcDbEntity
8
0
100
AcDbLine
10
98.14999899999998
20
-19.305000999999919
30
0
11
98.14999899999998
21
-18.33359229702733
31
0
0
LINE
5
156
100
AcDbEntity
8
0
100
AcDbLine
10
98.14999899999998
20
-18.33359229702733
30
0
11
127.94659652437042
21
-18.455054417832653
31
0
0
ARC
5
157
100
AcDbEntity
8
0
100
AcDbCircle
10
127.98125267299865
20
-9.9551287410628131
30
0
40
8.4999963270138519
210
0
220
0
230
1
100
AcDbArc
50
-90.233606754126001
51
0.00012929527352075531
0
LINE
5
158
100
AcDbEntity
8
0
100
AcDbLine
10
136.48124899999087
20
-9.9551095594795651
30
0
11
136.48124799997498
21
67.695000090146365
31
0
0
ARC
5
159
100
AcDbEntity
8
0
100
AcDbCircle
10
127.98124903818206
20
67.695001038206712
30
0
40
8.4999989617929828
210
-0
220
0
230
1
100
AcDbArc
50
-6.3890569223574909e-06
51
90.000001456749274
0
LINE
5
160
100
AcDbEntity
8
0
100
AcDbLine
10
127.98124882206898
20
76.194999999999695
30
0
11
88.650037696543507
21
76.194999000000962
31
0
0
ARC
5
161
100
AcDbEntity
8
0
100
AcDbCircle
10
88.649970878165533
20
67.695028121834454
30
0
40
8.4999708784291492
210
0
220
-0
230
1
100
AcDbArc
50
89.999549597156673
51
143.40283336436207
0
ARC
5
162
100
AcDbEntity
8
0
100
AcDbCircle
10
73.415484365336312
20
73.994116652819997
30
0
40
8.4999998652484408
210
-0
220
0
230
1
100
AcDbArc
50
-8.3306841361580677
51
79.379706970905502
0
LINE
5
163
100
AcDbEntity
8
0
100
AcDbLine
10
74.982029880378235
20
82.348512672792097
30
0
11
-2.1173564032887526
21
96.805535958068845
31
0
0
ARC
5
164
100
AcDbEntity
8
0
100
AcDbCircle
10
-3.6823250769912659
20
88.443435738692543
30
0
40
8.5072820000610854
210
0
220
-0
230
1
100
AcDbArc
50
79.399707702337437
51
168.04148063649703
0
LINE
5
165
100
AcDbEntity
8
0
100
AcDbLine
10
-12.004980911372092
20
90.206174202279854
30
0
11
-17.710593180233118
21
63.267494290845214
31
0
0
ARC
5
166
100
AcDbEntity
8
0
100
AcDbCircle
10
-10.862508111435897
20
61.817069907943335
30
0
40
6.9999999999999796
210
0
220
0
230
1
100
AcDbArc
50
168.04148063649731
51
261.5444297015398
0
LINE
5
167
100
AcDbEntity
8
0
100
AcDbLine
10
-11.891805189883053
20
54.893158619928457
30
0
11
-11.891805189883051
21
54.816568969245019
31
0
0
LINE
5
168
100
AcDbEntity
8
0
100
AcDbLine
10
-11.891805189883051
20
54.816568969245019
30
0
11
11.519433903376743
21
54.820952783992929
31
0
0
ARC
5
169
100
AcDbEntity
8
0
100
AcDbCircle
10
11.519714782230697
20
53.32095281029325
30
0
40
1.4999999999973213
210
0
220
-0
230
1
100
AcDbArc
50
0
51
90.010728781986714
0
ENDSEC
0
SECTION
2
OBJECTS
0
DICTIONARY
5
C
100
AcDbDictionary
3
ACAD_GROUP
350
D
3
ACAD_MLINESTYLE
350
17
0
DICTIONARY
5
D
100
AcDbDictionary
0
DICTIONARY
5
1A
330
C
100
AcDbDictionary
0
DICTIONARY
5
17
100
AcDbDictionary
0
ENDSEC
0
EOF
